<svg width="24" height="24" viewBox="0 0 24 24" fill="none" xmlns="http://www.w3.org/2000/svg">
<path d="M14.4102 16.8673C13.728 17.3676 12.8828 17.5934 12.042 17.5001C11.2022 17.5936 10.358 17.3681 9.67677 16.8683C9.48898 16.6818 9.23497 16.5773 8.97033 16.5777C8.70569 16.5781 8.45197 16.6833 8.26471 16.8703C8.07746 17.0573 7.97191 17.3108 7.97117 17.5755C7.97043 17.8401 8.07456 18.0943 8.26077 18.2823C8.77784 18.7274 9.37881 19.0645 10.0282 19.2736C10.6776 19.4828 11.3624 19.5598 12.042 19.5001C12.7217 19.5595 13.4064 19.4825 14.056 19.2735C14.7055 19.0646 15.3067 18.7279 15.8242 18.2833C15.9175 18.1905 15.9916 18.0803 16.0423 17.9588C16.0929 17.8374 16.1191 17.7071 16.1193 17.5755C16.1196 17.4439 16.0939 17.3136 16.0437 17.192C15.9935 17.0703 15.9198 16.9598 15.8268 16.8667C15.7338 16.7736 15.6234 16.6997 15.5018 16.6494C15.3802 16.599 15.2499 16.5731 15.1183 16.5732C14.9868 16.5732 14.8565 16.5992 14.735 16.6497C14.6134 16.7002 14.5031 16.7741 14.4102 16.8673L14.4102 16.8673ZM9.2005 15.0017C9.39828 15.0017 9.5916 14.943 9.75602 14.8331C9.92044 14.7231 10.0486 14.5669 10.1242 14.3842C10.1998 14.2014 10.2196 14.0003 10.1809 13.8064C10.1423 13.6124 10.047 13.4342 9.90709 13.2944C9.7672 13.1546 9.58899 13.0594 9.395 13.0209C9.201 12.9824 8.99994 13.0022 8.81724 13.078C8.63454 13.1537 8.4784 13.2819 8.36856 13.4464C8.25873 13.6109 8.20014 13.8043 8.2002 14.0021C8.20049 14.2672 8.30599 14.5214 8.49354 14.7088C8.68108 14.8963 8.93535 15.0016 9.2005 15.0017ZM15.2005 13.0017C15.0027 13.0017 14.8094 13.0603 14.6449 13.1701C14.4804 13.2799 14.3522 13.4361 14.2764 13.6188C14.2007 13.8015 14.1808 14.0026 14.2194 14.1965C14.2579 14.3905 14.3531 14.5688 14.4929 14.7086C14.6327 14.8485 14.8108 14.9438 15.0048 14.9825C15.1988 15.0211 15.3999 15.0014 15.5826 14.9257C15.7654 14.8501 15.9216 14.722 16.0315 14.5576C16.1414 14.3932 16.2001 14.1998 16.2002 14.0021C16.1999 13.7369 16.0945 13.4828 15.9071 13.2953C15.7197 13.1077 15.4656 13.0022 15.2005 13.0017ZM23 11.7804C23.0018 10.9873 22.7536 10.2138 22.2906 9.56994C21.8277 8.92603 21.1735 8.44445 20.4211 8.19366C19.6688 7.94286 18.8565 7.93561 18.0998 8.17295C17.343 8.41028 16.6804 8.88012 16.206 9.51566C15.2065 9.26121 14.1854 9.101 13.1559 9.03715L14.0117 3.33215L16.0993 4.04199C16.1088 4.83612 16.4331 5.59399 17.001 6.14914C17.569 6.7043 18.334 7.01133 19.1281 7.00281C19.9223 6.99429 20.6806 6.6709 21.2364 6.10368C21.7923 5.53647 22.1003 4.77181 22.0928 3.97766V3.95518C22.0737 3.1697 21.7501 2.42238 21.1903 1.87101C20.6306 1.31963 19.8785 1.00735 19.0928 1.0001C18.642 1.00347 18.1978 1.10918 17.7938 1.30926C17.3899 1.50934 17.0366 1.79856 16.7607 2.1551L13.5225 1.05381C13.3839 1.00638 13.2365 0.990016 13.0909 1.00586C12.9453 1.02171 12.805 1.06939 12.6798 1.14552C12.5547 1.22165 12.4478 1.32437 12.3668 1.4464C12.2857 1.56843 12.2325 1.70678 12.2109 1.85166L11.1345 9.0271C10.0073 9.07645 8.88808 9.24015 7.794 9.51566C7.21467 8.73423 6.35555 8.20716 5.39644 8.04476C4.43733 7.88237 3.45259 8.09724 2.6483 8.6444C1.84402 9.19156 1.28254 10.0286 1.08138 10.9803C0.880228 11.9321 1.05499 12.9247 1.56908 13.7505C1.20061 14.4435 1.00536 15.2153 1 16.0001C1 19.9249 5.832 23.0001 12 23.0001C18.168 23.0001 23 19.9249 23 16.0001C22.9947 15.2156 22.7996 14.444 22.4313 13.7512C22.7988 13.1592 22.9955 12.4771 23 11.7804ZM19.0928 3.0001C19.2906 3.0001 19.4839 3.05875 19.6483 3.16863C19.8128 3.27851 19.941 3.43469 20.0166 3.61742C20.0923 3.80014 20.1121 4.00121 20.0736 4.19519C20.035 4.38917 19.9397 4.56735 19.7999 4.70721C19.66 4.84706 19.4818 4.9423 19.2879 4.98089C19.0939 5.01947 18.8928 4.99967 18.7101 4.92398C18.5274 4.84829 18.3712 4.72012 18.2613 4.55567C18.1514 4.39122 18.0928 4.19788 18.0928 4.0001C18.0971 3.73623 18.2038 3.48437 18.3904 3.29776C18.577 3.11114 18.8289 3.00441 19.0928 3.0001ZM4.78027 10.0001C5.09105 10.0039 5.39528 10.09 5.66199 10.2496C4.69674 10.6647 3.8031 11.2296 3.0141 11.9235C3.0101 11.8757 3 11.8285 3 11.7804C3.0006 11.3084 3.18836 10.8559 3.5221 10.5222C3.85583 10.1885 4.3083 10.0007 4.78027 10.0001ZM12 21.0001C7.12109 21.0001 3 18.7101 3 16.0001C3 13.2901 7.12109 11.0001 12 11.0001C16.8789 11.0001 21 13.2901 21 16.0001C21 18.7101 16.8789 21.0001 12 21.0001ZM20.9859 11.9236C20.1969 11.2296 19.3033 10.6647 18.338 10.2496C18.6047 10.09 18.9089 10.004 19.2197 10.0001C19.6917 10.0007 20.1442 10.1885 20.4779 10.5222C20.8116 10.8559 20.9994 11.3084 21 11.7804C21 11.8285 20.9899 11.8757 20.9859 11.9236Z" fill="#A0A0A0"/>
</svg>
